<?xml version="1.0" encoding="utf-8"?>
<!-- Generator: Adobe Illustrator 24.1.2, SVG Export Plug-In . SVG Version: 6.00 Build 0)  -->
<svg version="1.1" id="Layer_1" xmlns="http://www.w3.org/2000/svg" xmlns:xlink="http://www.w3.org/1999/xlink" x="0px" y="0px"
	 viewBox="0 0 369.5 518.4" style="enable-background:new 0 0 369.5 518.4;" xml:space="preserve">
<style type="text/css">
	.st0{fill:url(#SVGID_1_);}
	.st1{fill:#A5A5F9;}
	.st2{fill:#1E7C63;}
	.st3{fill:#3C8C73;}
	.st4{fill:#4DBC8F;}
	.st5{fill:#C9B091;}
	.st6{fill:#E4FFDA;}
	.st7{fill:url(#SVGID_2_);}
	.st8{fill:#EEF8FC;}
	.st9{fill:#B5BCBF;}
	.st10{fill:#657380;}
	.st11{fill:#48525B;}
	.st12{fill:#E8B928;}
	.st13{fill:#F28F2E;}
	.st14{fill:#D47D28;}
	.st15{fill:#8C7019;}
	.st16{fill:#786346;}
	.st17{fill:#A66F4A;}
	.st18{fill:#DDB581;}
	.st19{fill:#A3865F;}
	.st20{fill:#FFCC99;}
	.st21{fill:#C67526;}
	.st22{fill:#AB6521;}
	.st23{fill:url(#SVGID_3_);}
	.st24{fill:#875A3C;}
	.st25{fill:#9F7350;}
	.st26{fill:#70482C;}
	.st27{fill:#865A37;}
	.st28{fill:#52465C;}
	.st29{fill:#3B2F45;}
	.st30{fill:#5C706D;}
	.st31{fill:#456055;}
	.st32{fill:#917B50;}
	.st33{fill:#CEB178;}
	.st34{fill:#AB333C;}
	.st35{fill:#471923;}
	.st36{fill:#E2C4AC;}
	.st37{fill:#3E2F42;}
	.st38{fill:#301116;}
	.st39{fill:#C4A19B;}
	.st40{fill:#DA7E59;}
	.st41{fill:#320710;}
	.st42{fill:#B88931;}
	.st43{fill:#DFB837;}
	.st44{fill:#4C363A;}
	.st45{fill:#646616;}
	.st46{fill:#392C3E;}
	.st47{fill:#BD9369;}
	.st48{fill:#6A5658;}
	.st49{fill:#846334;}
	.st50{fill:#84B66F;}
	.st51{fill:#2A5635;}
	.st52{fill:#47814E;}
	.st53{fill:#294C45;}
	.st54{fill:#A5766E;}
	.st55{fill:#4F3D49;}
	.st56{fill:#3C6249;}
	.st57{fill:#4C935B;}
	.st58{fill:#DFAF8B;}
	.st59{fill:#243E33;}
	.st60{fill:#4F7755;}
	.st61{opacity:0.43;fill:#2954A2;}
</style>
<g>
	<g>
		<linearGradient id="SVGID_1_" gradientUnits="userSpaceOnUse" x1="-37.2281" y1="481.2079" x2="406.7517" y2="37.2281">
			<stop  offset="0" style="stop-color:#3D75FF"/>
			<stop  offset="1" style="stop-color:#6A2F00"/>
		</linearGradient>
		<polygon class="st0" points="0,518.4 369.5,518.4 369.5,0 0,0 		"/>
		<path class="st1" d="M161.7,169.6c-4.4-0.3-8.7-1.4-13.1-1.7c-11.6-0.8-22.8,1.2-32.5,7.4h84.7c-8.1-3.5-16.9-5.4-25.8-5.6
			C170.6,169.6,166.2,169.9,161.7,169.6z"/>
		<path class="st1" d="M153,188c-11.1-2.3-22.7-0.2-33.8-2.4c-7.7-1.6-14.8-5.2-22.4-6.9c-10.3-2.3-21.2-1.1-31.5,1.5
			c-1.2,0.3-2.5,0.6-3.7,0.4c-1.3-0.3-2.5-1.2-3.6-1.9c-7.8-5.3-18.9-5.4-26.7,0c-0.7,0.4-1.3,0.9-2.1,1.1c-1,0.2-2.1-0.2-3-0.6
			c-8.3-3.3-17.7-3.6-26.2-1v16.9h170.5C164.9,191.9,159.2,189.3,153,188z"/>
		<path class="st1" d="M363.7,152c-6.5,0.7-12.8,2.2-19.3,2c-4.7-0.2-9.3-1.2-14-1.3c-10.8-0.2-20.9,4.8-31.4,7.4
			c-12.6,3.1-25.7,2.8-38.5,3.2c-12.4,0.4-25.1,1.5-37.2,4.1c-5.4,1.2-10.9,2.9-15.2,6.2h161.6v-21.9
			C367.6,151.7,365.6,151.8,363.7,152z"/>
		<path class="st2" d="M263.3,248.9c-6,0-12,0.1-18,0.3c-42.2,1.1-84.3,5.3-126.4,8.4c-14.4,1.1-28.9,2-43.3,1.3
			c-12-0.6-24-2.4-36-3.2c-13.2-1-26.5-0.9-39.6,0.3v167.9v94.6h369.5V413.5V258.8C334.8,251.3,298.9,248.8,263.3,248.9z"/>
		<path class="st3" d="M369.5,327.2v-62.4c-23.9-2.7-47.9-3.6-71.9-2.5c-44.4,1.9-88.3,10.1-132.5,14.3c-31.1,3-62.4,4-93.7,4.9
			c-23.8,0.7-47.6,1.5-71.4,2.2v59.6c37.4,0.3,74.5-5.9,111.6-10.5C197.1,322.2,283.6,320.4,369.5,327.2z"/>
		<path class="st4" d="M165.1,276.5c44.2-4.2,88.1-12.4,132.5-14.3c24-1,48.1-0.2,71.9,2.5v-5.9c-34.7-7.5-70.6-10.1-106.2-9.9
			c-6,0-12,0.1-18,0.3c-42.2,1.1-84.3,5.3-126.4,8.4c-14.4,1.1-28.9,2-43.3,1.3c-12-0.6-24-2.4-36-3.2c-13.2-1-26.5-0.9-39.6,0.3
			v27.8c23.8-0.7,47.6-1.5,71.4-2.2C102.6,280.5,133.9,279.5,165.1,276.5z"/>
		<path class="st5" d="M180.8,437.9c7.1-2.9,15.8-1.4,21.6,3.6c1.8-8.4,8.4-15.7,16.7-18.1c8.3-2.5,17.8,0,23.9,6
			c4.1-4.8,10.9-6.3,17.2-6.2c7.8,0.1,15.5,2.4,22.2,6.4c7.4-9.6,16.9-17.6,27.5-23.5c-16.6,0.8-33.4,0.3-49.2,5
			c-6.6,1.9-13,4.7-19.7,6c-6.3,1.2-12.8,0.9-19.3,1.3c-16.1,1-31.6,6.1-46.3,12.9C177.5,433.3,179.3,435.5,180.8,437.9z"/>
		<g>
			<g>
				<path class="st6" d="M60.3,327.6c2.9-0.4,5.7-0.4,8.6-0.4l8.6,0l8.6,0l8.6,0l17.2,0.1c5.7,0,11.4,0.2,17.2,0.3v0.3
					c-5.7,0.2-11.4,0.3-17.2,0.3l-17.2,0.1l-8.6,0l-8.6,0l-8.6,0c-2.9,0-5.7,0-8.6-0.4V327.6z"/>
			</g>
			<g>
				<path class="st6" d="M23.1,335.6c3-0.4,6-0.4,9-0.4l9,0l9,0l9,0l17.9,0.1c6,0,12,0.2,17.9,0.3v0.3c-6,0.2-12,0.3-17.9,0.3
					L59,336.3l-9,0l-9,0l-9,0c-3,0-6,0-9-0.4V335.6z"/>
			</g>
			<g>
				<path class="st6" d="M24.5,311.3c1.7-0.4,3.5-0.4,5.2-0.4l5.2,0l5.2,0l5.2,0c3.5,0,6.9,0,10.4,0.1c3.5,0,6.9,0.2,10.4,0.3v0.3
					c-3.5,0.2-6.9,0.3-10.4,0.3c-3.5,0.1-6.9,0.1-10.4,0.1l-5.2,0l-5.2,0l-5.2,0c-1.7,0-3.5,0-5.2-0.4V311.3z"/>
			</g>
			<g>
				<path class="st6" d="M34.2,305.9c2.3-0.4,4.7-0.4,7-0.4l7,0l7,0l7,0l14,0.1c4.7,0,9.3,0.2,14,0.3v0.3c-4.7,0.2-9.3,0.3-14,0.3
					l-14,0.1l-7,0l-7,0l-7,0c-2.3,0-4.7,0-7-0.4V305.9z"/>
			</g>
			<g>
				<path class="st6" d="M237.1,319.3c-1.7,0.4-3.5,0.4-5.2,0.4l-5.2,0l-5.2,0l-5.2,0c-3.5,0-6.9,0-10.4-0.1
					c-3.5,0-6.9-0.2-10.4-0.3V319c3.5-0.2,6.9-0.3,10.4-0.3c3.5-0.1,6.9-0.1,10.4-0.1l5.2,0l5.2,0l5.2,0c1.7,0,3.5,0,5.2,0.4V319.3z
					"/>
			</g>
			<g>
				<path class="st6" d="M227.3,314c-2.3,0.4-4.7,0.4-7,0.4l-7,0l-7,0l-7,0l-14-0.1c-4.7,0-9.3-0.2-14-0.3v-0.3
					c4.7-0.2,9.3-0.3,14-0.3l14-0.1l7,0l7,0l7,0c2.3,0,4.7,0,7,0.4V314z"/>
			</g>
			<g>
				<path class="st6" d="M76.3,284.7c2.3-0.4,4.6-0.4,6.9-0.4l6.9,0l6.9,0l6.9,0l13.8,0.1c4.6,0,9.2,0.2,13.8,0.3v0.3
					c-4.6,0.2-9.2,0.3-13.8,0.3l-13.8,0.1l-6.9,0l-6.9,0l-6.9,0c-2.3,0-4.6,0-6.9-0.4V284.7z"/>
			</g>
			<g>
				<path class="st6" d="M50.6,278.5c1.8-0.4,3.5-0.4,5.3-0.4l5.3,0l5.3,0l5.3,0c3.5,0,7.1,0,10.6,0.1c3.5,0,7.1,0.2,10.6,0.3v0.3
					c-3.5,0.2-7.1,0.3-10.6,0.3c-3.5,0.1-7.1,0.1-10.6,0.1l-5.3,0l-5.3,0l-5.3,0c-1.8,0-3.5,0-5.3-0.4V278.5z"/>
			</g>
			<g>
				<path class="st6" d="M61.2,274.9c3.4-0.4,6.8-0.4,10.2-0.4l10.2,0l10.2,0l10.2,0l20.4,0.1c6.8,0,13.6,0.2,20.4,0.3v0.3
					c-6.8,0.2-13.6,0.3-20.4,0.3l-20.4,0.1l-10.2,0l-10.2,0l-10.2,0c-3.4,0-6.8,0-10.2-0.4V274.9z"/>
			</g>
			<g>
				<path class="st6" d="M89.9,410.2c2.3-0.4,4.6-0.4,6.9-0.4l6.9,0l6.9,0l6.9,0l13.8,0.1c4.6,0,9.2,0.2,13.8,0.3v0.3
					c-4.6,0.2-9.2,0.3-13.8,0.3l-13.8,0.1l-6.9,0l-6.9,0l-6.9,0c-2.3,0-4.6,0-6.9-0.4V410.2z"/>
			</g>
			<g>
				<path class="st6" d="M178.1,360.1c1.8-0.4,3.5-0.4,5.3-0.4l5.3,0l5.3,0l5.3,0c3.5,0,7.1,0,10.6,0.1c3.5,0,7.1,0.2,10.6,0.3v0.3
					c-3.5,0.2-7.1,0.3-10.6,0.3c-3.5,0.1-7.1,0.1-10.6,0.1l-5.3,0l-5.3,0l-5.3,0c-1.8,0-3.5,0-5.3-0.4V360.1z"/>
			</g>
			<g>
				<path class="st6" d="M48.5,380.6c3.4-0.4,6.8-0.4,10.2-0.4l10.2,0l10.2,0l10.2,0l20.4,0.1c6.8,0,13.6,0.2,20.4,0.3v0.3
					c-6.8,0.2-13.6,0.3-20.4,0.3l-20.4,0.1l-10.2,0l-10.2,0l-10.2,0c-3.4,0-6.8,0-10.2-0.4V380.6z"/>
			</g>
			<g>
				<path class="st6" d="M23.6,271.8c3.1-0.4,6.2-0.4,9.3-0.4l9.3,0l9.3,0l9.3,0l18.5,0.1c6.2,0,12.3,0.2,18.5,0.3v0.3
					c-6.2,0.2-12.3,0.3-18.5,0.3l-18.5,0.1l-9.3,0l-9.3,0l-9.3,0c-3.1,0-6.2,0-9.3-0.4V271.8z"/>
			</g>
			<g>
				<path class="st6" d="M56.4,267.4c2.6-0.4,5.1-0.4,7.7-0.4l7.7,0l7.7,0l7.7,0l15.3,0.1c5.1,0,10.2,0.2,15.3,0.3v0.3
					c-5.1,0.2-10.2,0.3-15.3,0.3L87,268.1l-7.7,0l-7.7,0l-7.7,0c-2.6,0-5.1,0-7.7-0.4V267.4z"/>
			</g>
			<g>
				<path class="st6" d="M3.6,276.7c1.2-0.4,2.4-0.4,3.7-0.4l3.7,0c2.4,0,4.9,0,7.3,0c2.4,0,4.9,0,7.3,0.1c2.4,0,4.9,0.1,7.3,0.3
					v0.3c-2.4,0.2-4.9,0.3-7.3,0.3c-2.4,0.1-4.9,0.1-7.3,0.1c-2.4,0-4.9,0-7.3,0l-3.7,0c-1.2,0-2.4,0-3.7-0.4V276.7z"/>
			</g>
			<g>
				<path class="st6" d="M188.4,269.2c1-0.4,2-0.4,3-0.4l3,0c2,0,4,0,6,0c2,0,4,0,6,0.1c2,0,4,0.1,6,0.3v0.3c-2,0.2-4,0.3-6,0.3
					c-2,0.1-4,0.1-6,0.1c-2,0-4,0-6,0l-3,0c-1,0-2,0-3-0.4V269.2z"/>
			</g>
			<g>
				<path class="st6" d="M225.1,268.7c0.8-0.4,1.6-0.4,2.3-0.4l2.3,0c1.6,0,3.1,0,4.7,0c1.6,0,3.1,0,4.7,0.1c1.6,0,3.1,0.1,4.7,0.3
					v0.3c-1.6,0.2-3.1,0.3-4.7,0.3c-1.6,0.1-3.1,0.1-4.7,0.1c-1.6,0-3.1,0-4.7,0l-2.3,0c-0.8,0-1.6,0-2.3-0.4V268.7z"/>
			</g>
			<g>
				<path class="st6" d="M210.1,274.5c3.4-0.4,6.8-0.4,10.1-0.4l10.1,0l10.1,0l10.1,0l20.3,0.1c6.8,0,13.5,0.2,20.3,0.3v0.3
					c-6.8,0.2-13.5,0.3-20.3,0.3l-20.3,0.1l-10.1,0l-10.1,0l-10.1,0c-3.4,0-6.8,0-10.1-0.4V274.5z"/>
			</g>
			<g>
				<path class="st6" d="M221.6,342.3c4.6-0.4,9.1-0.4,13.7-0.4l13.7,0l13.7,0l13.7,0c9.1,0,18.2,0,27.4,0.1
					c9.1,0.1,18.2,0.1,27.4,0.3v0.3c-9.1,0.2-18.2,0.2-27.4,0.3c-9.1,0.1-18.2,0.1-27.4,0.1l-13.7,0l-13.7,0l-13.7,0
					c-4.6,0-9.1,0-13.7-0.4V342.3z"/>
			</g>
		</g>
		<g>
			
				<linearGradient id="SVGID_2_" gradientUnits="userSpaceOnUse" x1="-804.0859" y1="379.326" x2="-728.8839" y2="379.326" gradientTransform="matrix(-1 0 0 1 -576.4082 0)">
				<stop  offset="0" style="stop-color:#8B878D"/>
				<stop  offset="1" style="stop-color:#DADBDB"/>
			</linearGradient>
			<path class="st7" d="M227.7,389.5c0,0-0.7,3.9-13.7,8c0,0-34.9-6-52.7-24.1c0,0-8.1-8.2-8.8-12.2c0,0,2.4,8,25,13.9
				C177.5,375.1,220.9,388.8,227.7,389.5z"/>
			<polygon class="st8" points="148.2,353.9 179.3,351.3 178.7,352.4 148.6,354.5 			"/>
			<path class="st9" d="M157.1,349.1c0,0,0,4.9,2.4,4.9C159.5,354,160.5,349.3,157.1,349.1z"/>
			<path class="st10" d="M166.4,348.6c0,0-1.4-2.5-9.3,0.4c0,0,0.6,1.1,1.8,1.6C158.9,350.6,166.5,350.2,166.4,348.6z"/>
			<path class="st11" d="M166.6,353c0,0-0.2-1.4-1.1-1.3c0,0,2.7-2.2,0.3-3.3c0,0-6.6,0.1-7.4,1.9c0,0-0.2,3.3,1.3,3.4
				C159.7,353.7,166.4,354.1,166.6,353z"/>
			<path class="st12" d="M209.3,381.9c0,0-13.3-20.2-33.4-21.9l-18.9,5.3C157,365.3,199.6,382.6,209.3,381.9z"/>
			<path class="st13" d="M183,362.2c0,0,17.9,10.2,23,17.2l6-12.7c0,0-5.4-5.2-33.5-14.8l-3.3,6.4L183,362.2z"/>
			<path class="st14" d="M177.3,354l0.9-1.9c28.1,9.5,33.5,14.8,33.5,14.8l-0.9,1.9C210.4,368.4,204.5,363.2,177.3,354z"/>
			<path class="st15" d="M182.5,362.6l1.7-4.4l-29.9,3.2c0,0,2.7,4.7,3.9,4.8L182.5,362.6z"/>
			<polygon class="st15" points="199.2,374.4 176.3,375.8 170.6,372.4 200.2,368 			"/>
			<polygon class="st16" points="194.8,364.2 192.6,369.4 198.7,374.2 200.2,368 			"/>
			<polygon class="st16" points="178.3,355 175.4,359.3 182,362.6 184,358.2 			"/>
			<path class="st17" d="M179,351.8l-1.7,3.2l-23.5,2.5l2.3,3.8l-2.3,0.2c0,0-4.3-5.4-4.1-7.6L179,351.8z"/>
			<polygon class="st18" points="184.6,358.1 178.3,354.9 153.6,357.3 155.8,361.2 			"/>
			<polygon class="st19" points="184.6,358.1 153.9,361.2 154.1,361.8 183.7,358.7 182,362.6 183.4,362.7 			"/>
			<polygon class="st20" points="198.7,360.1 196.4,365.4 195.6,364.9 197.9,359.7 			"/>
			<polygon class="st21" points="198.5,360.1 196.1,365.3 198,366.1 200.3,360.9 			"/>
			<polygon class="st19" points="201.4,367.5 200,374.3 198.7,374.4 199.8,368.6 173.6,372.8 171.9,371.5 199.6,367.2 			"/>
			<polygon class="st18" points="201.4,367.5 194.6,364.1 165.8,368.8 172.7,371.6 			"/>
			<polygon class="st18" points="206.3,381.3 220.1,378.1 222.2,384.5 217.9,384.8 			"/>
			<path class="st21" d="M210.9,366.3l-4.8,13.2l1.5,1.6l12-2.3l1.9,4.7l5-0.4C226.3,383.1,218.9,365.9,210.9,366.3z"/>
			<path class="st22" d="M210.1,368.3l0.7-2c8-0.4,15.5,16.8,15.5,16.8l-2.7,0.2C221.6,379.3,216.1,369.3,210.1,368.3z"/>
			<path class="st8" d="M179.3,351.3l-0.6,1l25.4,10.4c0,0,15.4,5.3,20.8,19.8c0,0-6.3,0.6-7.4,1.6c0,0-31.4-9.6-42-12.1
				c0,0-14.9-4.6-18-7.4c0,0-7.1-7.4-7.9-10.5l-1.5-0.1c0,0,2.5,8.8,11.1,13.5c0,0,7.5,5.4,17.2,6.9c0,0,45.9,15.6,52.5,13.8
				c0,0,3.9,1.6-1-6.9c0,0-7-13.3-16.2-16.6L179.3,351.3z"/>
			<path class="st10" d="M231.1,387.3c0,0-0.5,2.9-3.8,2.3c0,0-15.5-2.3-52.4-15.1c0,0-13.6-3.9-18.1-8.4c0,0,13.7,5.6,20.1,7.7
				c0,0,45.5,13.8,50.7,13.8c0,0,4.1,1.1,1.8-2.6l-1.5-4C227.8,381,231.2,386.3,231.1,387.3z"/>
			
				<linearGradient id="SVGID_3_" gradientUnits="userSpaceOnUse" x1="-804.0661" y1="375.7291" x2="-728.8839" y2="375.7291" gradientTransform="matrix(-1 0 0 1 -576.4082 0)">
				<stop  offset="0" style="stop-color:#68666B"/>
				<stop  offset="1" style="stop-color:#DADBDB"/>
			</linearGradient>
			<path class="st23" d="M227.5,390c-0.1,0.1-0.3,0.4-0.3,0.4c-6.8-0.7-63.7-16.6-71.6-23.7c-1.5-2-2.9-4.1-3.1-5.6
				c0,0,2.4,8,25,13.9c0,0,43.4,13.8,50.2,14.5C227.7,389.5,227.5,389.9,227.5,390z"/>
			<path class="st10" d="M165.5,351.7c0,0-6.2,1.5-7,0.3c0,0,0,0.4,0.2,0.6c0,0,1.8,0.7,7.2-0.8L165.5,351.7z"/>
			<polygon class="st18" points="168.2,352.7 168.2,354.1 158.5,355.1 158,353.4 			"/>
			<path class="st11" d="M164.9,352.4c0,0,1-0.1,0.5,1.5l-0.6,0.1c0,0,0.7-1.2-0.4-1.2L164.9,352.4z"/>
			<path class="st11" d="M160.9,352.8c0,0,1-0.1,0.5,1.5l-0.6,0.1c0,0,0.7-1.2-0.4-1.2L160.9,352.8z"/>
			<path d="M157.6,350.9l0.1,0.2c0,0-2,0.6-2.4,2.1C155.3,353.2,155.2,351.5,157.6,350.9z"/>
			<path d="M157.4,351c0,0.1,0.1,0.2,0.2,0.2c0.1,0,0.2-0.1,0.2-0.2c0-0.1-0.1-0.2-0.2-0.2C157.5,350.8,157.4,350.9,157.4,351z"/>
		</g>
		<g>
			<polygon class="st24" points="237.5,402.2 235.7,402.8 240.3,405.4 239.3,433.9 241.2,432.9 242,404.6 			"/>
			<polygon class="st25" points="235.7,402.8 234.8,432.4 239.3,433.9 240.3,405.4 			"/>
			<polygon class="st24" points="203.6,388.9 202.2,389.4 205.7,391.3 205,413.2 206.4,412.4 207,390.7 			"/>
			<polygon class="st25" points="202.2,389.4 201.5,412 205,413.2 205.7,391.3 			"/>
			<polygon class="st24" points="184.5,381 183.4,381.4 186.2,382.9 185.6,399.6 186.7,399 187.1,382.4 			"/>
			<polygon class="st25" points="183.4,381.4 182.9,398.7 185.6,399.6 186.2,382.9 			"/>
			<polygon class="st24" points="159.1,368.4 158.1,368.7 160.5,370.1 160,385.1 161,384.6 161.4,369.6 			"/>
			<polygon class="st25" points="158.1,368.7 157.6,384.3 160,385.1 160.5,370.1 			"/>
			<polygon class="st24" points="140.3,357.8 139.4,358.1 141.6,359.4 141.1,373.2 142.1,372.8 142.4,359 			"/>
			<polygon class="st25" points="139.4,358.1 138.9,372.5 141.1,373.2 141.6,359.4 			"/>
			<g>
				<polygon class="st26" points="208.7,420.2 119.5,360.2 119.5,361.9 208.9,422.8 242,415.4 242,412.9 				"/>
				<polygon class="st27" points="132,357.5 119.5,360.2 208.7,420.2 242,412.9 				"/>
			</g>
			<polygon class="st24" points="202.6,411.1 200.7,411.8 205.3,414.3 204.4,442.9 206.3,441.9 207,413.5 			"/>
			<polygon class="st25" points="200.7,411.8 199.8,441.4 204.4,442.9 205.3,414.3 			"/>
			<polygon class="st24" points="181.1,398.2 179.6,398.7 183.2,400.6 182.4,422.5 183.9,421.7 184.4,400 			"/>
			<polygon class="st25" points="179.6,398.7 179,421.3 182.4,422.5 183.2,400.6 			"/>
			<polygon class="st24" points="162.4,385.6 161.3,386 164,387.5 163.5,404.2 164.6,403.6 165,387 			"/>
			<polygon class="st25" points="161.3,386 160.8,403.3 163.5,404.2 164,387.5 			"/>
			<polygon class="st24" points="141.9,373.6 140.9,373.9 143.3,375.3 142.8,390.3 143.8,389.8 144.2,374.8 			"/>
			<polygon class="st25" points="140.9,373.9 140.4,389.5 142.8,390.3 143.3,375.3 			"/>
			<polygon class="st24" points="124.1,361.2 123.2,361.5 125.4,362.7 124.9,376.6 125.9,376.1 126.2,362.3 			"/>
			<polygon class="st25" points="123.2,361.5 122.7,375.9 124.9,376.6 125.4,362.7 			"/>
		</g>
		<g>
			<path class="st28" d="M257.2,419.4c-1-2.4-1.8-5.2-3.2-7.1c-3.5-5.2-8.8-2.8-13.1-0.1c-7.6,4.7-15.4,9.6-22.2,17.3h44.6
				C261.1,426.6,258.9,423.4,257.2,419.4z"/>
			<path class="st29" d="M257.2,419.4c-1-2.4-1.8-5.2-3.2-7.1c-0.2-0.3-0.5-0.6-0.7-0.9c-1,0.4-2,0.8-3,1.2
				c-7.2,3.5-13.8,9.8-20.1,16.8h33.1C261.1,426.6,258.9,423.4,257.2,419.4z"/>
		</g>
		<g>
			<path class="st28" d="M116.5,456.5c-1-2.4-1.8-5.2-3.2-7.1c-3.5-5.2-8.8-2.8-13.1-0.1c-7.6,4.7-15.4,9.6-22.2,17.3h44.6
				C120.4,463.7,118.2,460.5,116.5,456.5z"/>
			<path class="st29" d="M116.5,456.5c-1-2.4-1.8-5.2-3.2-7.1c-0.2-0.3-0.5-0.6-0.7-0.9c-1,0.4-2,0.8-3,1.2
				c-7.2,3.5-13.8,9.8-20.1,16.8h33.1C120.4,463.7,118.2,460.5,116.5,456.5z"/>
		</g>
		<g>
			<path class="st28" d="M201.4,429.6c-1.4-2.9-2.6-6.1-4.4-8.4c-5-6.1-12.4-3.3-18.5-0.1c-10.8,5.6-21.7,11.3-31.2,20.4h62.8
				C206.9,438,203.8,434.3,201.4,429.6z"/>
			<path class="st29" d="M201.4,429.6c-1.4-2.9-2.6-6.1-4.4-8.4c-0.3-0.4-0.6-0.7-1-1.1c-1.4,0.4-2.8,0.9-4.2,1.5
				c-10.1,4.1-19.4,11.6-28.4,19.9h46.6C206.9,438,203.8,434.3,201.4,429.6z"/>
		</g>
		<path class="st30" d="M332.7,229c-11.6-3.7-19.8-16.9-31.9-16c-7.4,0.5-13.4,6.4-20.8,7.4c-3.6,0.5-7.3-0.3-11-0.5
			c-6.4-0.3-12.6,1.3-18.8,2.8c-12.2,2.9-24.4,5.5-36.7,7.8c1.8,1.1,3.6,2.2,5.4,3.3c8.8,5.2,17.6,10.3,26.3,15.5
			c6-0.2,12-0.3,18-0.3c35.6-0.1,71.5,2.4,106.2,9.9v-38.1C357.4,225.6,345,233,332.7,229z"/>
		<path class="st31" d="M219,233.7c-1.8-1.1-3.6-2.2-5.4-3.3c-9.9-6.2-20-13.3-30.5-17.9c-19.4-8.3-39,12.4-59.8,6.1
			c-4-1.2-7.7-3.2-11.8-3.9c-7.8-1.4-15.6,1.7-23.3,3.3c-26.5,5.4-53.8-7.5-80.5-3.6C5,214.8,2.5,215.3,0,216v40
			c13.2-1.1,26.4-1.2,39.6-0.3c12,0.9,23.9,2.6,36,3.2c14.4,0.7,28.9-0.2,43.3-1.3c42.1-3.1,84.2-7.3,126.4-8.4
			C236.5,244,227.7,238.9,219,233.7z"/>
		<g>
			<g>
				<polygon class="st32" points="220.9,214.4 196.2,267.7 221,264.6 				"/>
			</g>
			<g>
				<polygon class="st33" points="222.3,164.9 263.8,263.7 220.8,267.5 				"/>
			</g>
			<polygon class="st11" points="222.6,171.8 243.2,269.4 243,269.5 222.4,172 			"/>
			<g>
				<path class="st34" d="M196.6,270.7c0,0,5.5,3.9,36.3,5.6c0,0,22.1,1.2,32.1-4.2c0,0-2.8-2.3-6.3-2.6l-21.2-0.3
					C237.4,269.2,197.9,270.6,196.6,270.7z"/>
			</g>
			<g>
				<path class="st35" d="M251.5,270.2l5.2,2.6c0,0-12.3,1.2-13.7,1l-3.6-3.6C239.5,270.2,249.5,269.8,251.5,270.2z"/>
			</g>
			<g>
				<path class="st36" d="M237.5,269.3c0,0,4.8,1.9,6.5,5c0,0-16.7-0.3-21.3-3.8C222.6,270.5,232.7,269.4,237.5,269.3z"/>
			</g>
			<g>
				<path class="st37" d="M196.5,270.4c0,0,19-0.5,26.5-0.2l-0.7,0.5l-25.7,0.1L196.5,270.4z"/>
			</g>
			<g>
				<path class="st38" d="M251.5,279c0,0-13.6,10.5-46.2-0.5C205.4,278.5,229.7,280.3,251.5,279z"/>
			</g>
			<g>
				<path class="st39" d="M195.3,270.8c0,0-0.3,6.1,8.4,7.8c0,0,33.8,4.5,49.4,0.4c0,0,10.8-3.1,11.9-4.5c0,0,0.4-1.7-0.1-2.4
					c0,0-6.3,4.3-26.2,4.1c0,0-14.9,0.7-42.1-5l-0.4-0.9l-0.8-0.3L195.3,270.8z"/>
			</g>
			<g>
				<path class="st37" d="M196.6,270.4c0,0-0.4,0.1-0.2,0.8c0,0,21.7,4.3,27.7,4.3c6,0.1,19.1,1.7,27.7,0.1c0,0,11.8-2,13.1-3.1
					c0,0,0.5-0.5-1.6-1.7c0,0,1,0.9,0.9,1.3c0,0-6.4,2.7-12.5,2.9c0,0-12.7,1.9-27.5,0C224.2,275.1,206.9,273.5,196.6,270.4z"/>
			</g>
			<g>
				<path class="st37" d="M264.2,272c0,0-4.2-2.7-6.6-2.5c0,0,1.8-0.6,4.1,0.4C261.7,269.9,264.6,271.4,264.2,272z"/>
			</g>
			<g>
				<path class="st37" d="M261.7,272.4c0,0-23.9,6.6-38.9-0.3l-0.1-1.6c0,0,10.4,3.9,21.3,3.1c0,0,10.3-0.6,14.2-1.4
					C258.1,272.2,258,272.3,261.7,272.4z"/>
			</g>
			<g>
				<path class="st37" d="M258,269.6l-18.1,1.3c0,0-2.1-1.6-3-1.7l15.4-0.2l1.5,0.6C253.9,269.5,256.3,269,258,269.6z"/>
			</g>
			<g>
				<polygon class="st35" points="221.2,267.2 264.7,263.4 264.9,264 221.1,267.9 				"/>
			</g>
			<g>
				<polygon class="st35" points="219.9,264.3 195.5,267.7 196.9,268 220,264.9 				"/>
			</g>
			<polygon class="st11" points="221.7,172.6 196.2,269.5 195.3,269.4 221.7,170.7 			"/>
			<polygon class="st11" points="221.6,210.8 242.4,269.4 242,269.4 221.4,211 			"/>
			<g>
				<polygon class="st40" points="264.1,264.1 265,263.8 222.5,163.7 222.5,166.3 				"/>
			</g>
			<g>
				<polygon class="st40" points="196.9,267.6 196.1,267.1 221.2,212.7 222,213.2 				"/>
			</g>
			<g>
				<polygon class="st41" points="220.2,272.8 221.3,272.7 222.6,163.3 221.6,163.2 				"/>
			</g>
		</g>
		<g>
			<path class="st42" d="M299,18.7c0.3,0.9,0.7,1.7,1.1,2.5c0.1,0.3,0.2,0.5,0.4,0.8c1.1,2.1,2.5,3.9,3.9,5.8c1,1.3,2,2.7,2.9,4.1
				c1.9,3,3.5,6.3,5.6,9.2c1.9,2.5,4.2,4.6,6.4,6.7c4.3,3.9,8.5,7.7,12.8,11.6c0.7,0.7,1.6,1.4,2.5,1.2c1.7-0.3,2.1-3,1.9-5
				c-0.7-8-2.4-15.7-4.8-23.1C327.8,20.8,322,9.8,315.1,0h-21.9c1.4,5.2,2.9,10.4,4.6,15.5C298.2,16.6,298.6,17.7,299,18.7z"/>
			<path class="st42" d="M298.4,131.2c1.1-0.4,1.5-1.9,1.7-3.2c1.5-6.8,4.1-13.2,7.5-19.1c1.6-2.8,3.3-5.4,5.1-8.1
				c1.9-2.9,3.8-5.8,5.7-8.6c1.9-2.8,3.8-5.7,5.8-8.4c-0.3-0.9-0.6-1.7-0.9-2.6c-5.5-14.8-12.9-28.9-22.4-40.8
				c-1.8,7.4-3.4,14.9-4.4,22.4C293.4,85.4,295.2,108.6,298.4,131.2z"/>
			<path class="st42" d="M317.2,104.7c-2,2.8-4,5.6-5.7,8.7c-4.2,7.5-6.6,15.8-7.9,24.6c2.3-0.4,4.5-1.3,6.3-2.9
				c-2.5,15.6,4,32.6,15.7,41c0.6,0.4,1.3,0.9,1.7,1.6c0.4,0.7,0.5,1.7,0.7,2.6c0.6,3.7,2.4,7,4.9,9.4c0-6.3-0.1-12.7,0.3-19
				c0.4-5.7,1.3-11.3,2.4-16.8c-1.2-21.3-2.8-41.5-8.5-61.3C323.4,96.2,320.3,100.4,317.2,104.7z"/>
			<path class="st42" d="M166.5,112.3c0.4-0.3,0.7-0.8,0.8-1.3c0.3-1.4-1-2.5-2.1-3.2c-5.3-3.3-10.3-7.4-14.6-12.2
				c-5.8,2.8-11.8,5-18,6.4c8,5.3,16.6,9.2,25.6,11.4C161,114,164.3,114.4,166.5,112.3z"/>
			<path class="st42" d="M196.3,103.6c0.5-2,0.1-4.1-0.4-6.1c-2-8-4.9-15.7-8.6-22.8c-2.1,1.2-4.4,2.2-6.7,2.8
				c-2.2,0.6-4.4,0.9-6.5,1.9C183,84.8,188.4,96,196.3,103.6z"/>
			<path class="st42" d="M333.9,172.7c0.1,5.8,0.3,11.6,0.4,17.4c0,0.3,0,0.6,0,0.9c1.1,0.9,2.4,1.6,3.6,2.1
				c-0.7-11-1.4-22.1-2.1-33.1c-0.8,1.8-1.4,3.6-1.7,5.6C333.8,167.9,333.9,170.3,333.9,172.7z"/>
			<path class="st43" d="M327.7,6.5c0.1-0.1,0.2-0.2,0.2-0.3c0.6-1.1,0.6-2.6,0.1-3.7c-0.3-0.8-0.9-1.4-1.3-2.1
				c-0.1-0.1-0.1-0.3-0.2-0.4h-2.8c1,2.1,2.1,4.2,3.3,6.1C327.2,6.4,327.5,6.6,327.7,6.5z"/>
			<path class="st44" d="M332.8,189.6c0.5,0.5,1,0.9,1.5,1.3c0-0.3,0-0.6,0-0.9c-0.1-5.8-0.2-11.6-0.4-17.4
				c-0.1-2.4-0.1-4.8,0.3-7.2c0.3-2,0.9-3.8,1.7-5.6c-0.1-0.9-0.1-1.9-0.2-2.8c-0.1-1.1-0.1-2.2-0.2-3.3c0,0,0,0,0,0
				c-1.1,5.6-2,11.2-2.4,16.8C332.7,176.9,332.8,183.3,332.8,189.6z"/>
			<path class="st42" d="M126,103.1c-8.8,1.2-17.7,1-26.3-0.8c5.7,5,13,7.7,20.2,7c1.3,3.6,4.9,5.2,8.1,6.2
				c12.7,3.9,25.8,4.4,38.9,2.6c-1.2-0.1-2.4-0.1-3.6-0.2C149.9,117.1,136.5,112.3,126,103.1z"/>
			<path class="st43" d="M315.1,0h-21.9c1.4,5.2,2.9,10.4,4.6,15.5c0.4,1.1,0.7,2.2,1.2,3.2c0.5,0,1.1-0.1,1.6-0.2
				c1.8-0.3,3.5-1,5.1-2c2.6-1.5,4.8-3.8,6.4-6.5c1.4,8.9,7.5,16.2,14.6,20.2c1.6,0.9,3.3,1.7,5,2.3C327.8,20.8,322,9.8,315.1,0z"/>
			<path class="st42" d="M300.6,18.5c-0.1,0.9-0.3,1.8-0.5,2.8c0.1,0.3,0.2,0.5,0.4,0.8c1.1,2.1,2.5,3.9,3.9,5.8
				c0.8-3.7,1.2-7.5,1.3-11.3C304.1,17.5,302.3,18.2,300.6,18.5z"/>
			<path class="st43" d="M284.2,10.5c1.7,1.7,2.9,4,4.5,5.9c0.5,0.5,1.3,1,1.7,0.3c-2.5-5.4-4.6-11-6.3-16.7h-10.6
				c1,2,2.2,3.9,3.8,5.4C279.5,7.3,282.2,8.4,284.2,10.5z"/>
			<path class="st42" d="M181.8,92.2c-3.4-3.9-6.9-7.8-10.8-10.9c-0.7,0.6-1.4,1.2-2.1,1.9c-4.4,3.9-9.1,7.2-14,10
				c2.9,3,5.8,5.9,8.8,8.9c3.6,3.7,7.3,7.4,11.5,10.2c1.8,1.2,3.7,2.2,5.6,3.2c5.7-1.4,11.3-3.1,16.8-5.1c-1-1.2-2.1-2.4-3.1-3.6
				C190.2,101.9,186,97,181.8,92.2z"/>
			<path class="st42" d="M190.6,72.5c4.4,7.6,7.7,16.1,9.5,25.1c0.7,3.7,1.2,7.5,2.4,10.9c4.6-1.8,9.1-3.6,13.6-5.6
				c3,4.4,7.4,7.2,11.9,9.6c12.2,6.6,25.5,10.6,38.9,12.1c-6.4-10-15.5-17.2-21.7-27.7c-2.6-4.4-4.6-9.1-7.3-13.4
				c-4.1-6.5-9.6-11.7-13.5-18.4c-2.6-4.4-4.5-9.5-8.4-12.4c-2.9-2.2-6.4-2.7-9.7-3.4c-0.4-0.1-0.8-0.2-1.2-0.3
				C203.1,58.6,197.7,67.2,190.6,72.5z"/>
			<path class="st42" d="M205.9,41.6c0,0.3,0,0.6,0,0.8c2.6,1.2,5.3,2.1,7.4,4.2c0.5,0.4,1.2,0.9,1.6,0.3c0.1-0.2,0.1-0.5,0.1-0.7
				c-0.1-1.7-0.8-3.3-1.6-4.8C210.9,41.8,208.4,41.9,205.9,41.6z"/>
			<path class="st42" d="M231.4,34.6c0.7,8.5,0.1,17.1-1.6,25.4c-0.4,1.8-0.8,3.9,0.1,5.5c0.5,0.9,1.2,1.4,1.9,2.1
				c1.8,1.7,3.2,3.9,4.6,6.1c3.8,5.9,8.1,11.3,12.4,16.7c3.7,4.7,7,12.5,12.4,14.8c0.2-5.2-2.9-11.1-4.3-15.9
				c-1.8-5.9-3.5-11.9-5-17.9c-3-11.8-5.5-23.9-7.4-36c-0.3-2.2-0.7-4.4-0.9-6.6c-1.5-0.3-2.9-0.7-4.3-1
				C236.8,30.3,234.2,32.6,231.4,34.6z"/>
			<path class="st42" d="M174.1,79.3c8.9,5.4,14.3,16.7,22.2,24.3c0.5-2,0.1-4.1-0.4-6.1c-2-8-4.9-15.7-8.6-22.8
				c-2.1,1.2-4.4,2.2-6.7,2.8C178.4,78,176.1,78.3,174.1,79.3z"/>
			<path class="st42" d="M224.4,56.7c0.3,0.6,0.7,1.3,1.3,1.2c0.6-0.1,0.8-1,0.9-1.7c0.6-6.3,0.8-12.7,0.8-19.1
				c-3.2,1.7-6.6,3-10,3.8C219.5,46.3,221.9,51.6,224.4,56.7z"/>
			<path class="st42" d="M246.6,29.4c0.4,3.8,1.5,7.6,2.6,11.2c3.9,13.2,7.4,26.6,10.6,40.1c3.1,13.3,6.2,27.5,14.9,37
				c1.1-5.3,0.1-10.8-0.9-16.1c-2.1-10.9-4.5-21.8-5.2-33c-0.3-5.5-0.2-11.1-0.5-16.6c-0.4-7-1.4-14-2.7-20.9
				C259.2,31.5,252.8,30.6,246.6,29.4z"/>
			<path class="st42" d="M158.1,113.3c2.8,0.7,6.1,1.1,8.4-1.1c0.4-0.3,0.7-0.8,0.8-1.3c0.3-1.4-1-2.5-2.1-3.2
				c-5.3-3.3-10.3-7.4-14.6-12.2c-5.8,2.8-11.8,5-18,6.4C140.5,107.2,149.1,111.1,158.1,113.3z"/>
			<path class="st42" d="M312.7,100.9c1.9-2.9,3.8-5.8,5.7-8.6c1.9-2.8,3.8-5.7,5.8-8.4c-0.3-0.9-0.6-1.7-0.9-2.6
				c-5.5-14.8-12.9-28.9-22.4-40.8c-1.8,7.4-3.4,14.9-4.4,22.4c-3.1,22.6-1.4,45.8,1.9,68.4c1.1-0.4,1.5-1.9,1.7-3.2
				c1.5-6.8,4.1-13.2,7.5-19.1C309.3,106.2,311,103.5,312.7,100.9z"/>
			<path class="st42" d="M291.4,56.4c1.1-7.3,2.8-14.4,5-21.4c-2.8-3.1-5.7-6-8.9-8.7c-0.8-0.7-1.6-1.3-2.4-2
				c2.2,12.4,3.4,25.1,3.8,37.8C290.7,61,291.1,58.6,291.4,56.4z"/>
			<path class="st45" d="M150.5,95.5c1.5-0.7,3-1.5,4.4-2.3c4.9-2.8,9.6-6.1,14-10c0.7-0.6,1.4-1.3,2.1-1.9c0.9-0.7,1.7-1.4,2.7-1.9
				c0.1-0.1,0.2-0.1,0.4-0.2c2-1,4.3-1.3,6.5-1.9c2.3-0.6,4.6-1.5,6.7-2.8c1.1-0.6,2.2-1.4,3.3-2.2c7.1-5.3,12.5-13.9,14.5-23.4
				c0.5-2.2,0.7-4.4,0.8-6.7c0-0.3,0-0.6,0-0.8c2.5,0.3,5,0.2,7.5-0.1c1.4-0.2,2.7-0.4,4-0.7c3.5-0.8,6.8-2.1,10-3.8
				c1.4-0.7,2.7-1.6,4-2.5c2.8-2,5.4-4.3,7.7-6.9c1.4,0.3,2.9,0.7,4.3,1c1.1,0.2,2.1,0.5,3.2,0.7c6.2,1.3,12.6,2.1,18.8,1.7
				c6.8-0.4,13.3-2.4,18.8-7c0.1-0.1,0.3-0.2,0.4-0.4C275.2,16,264.7,9.2,256.4,0H39.7c-7.2,25-2.8,54.5,12.3,74.6
				c7,9.4,17.4,17.1,28,14.9c2.1,6.7,8.6,9.9,14.6,11.6c1.7,0.5,3.4,0.9,5.1,1.3c8.7,1.8,17.6,2.1,26.3,0.8c2.2-0.3,4.4-0.7,6.6-1.2
				C138.7,100.5,144.7,98.4,150.5,95.5z"/>
			<g>
				<g>
					<path class="st46" d="M285,23.4c-0.1,0.1-0.3,0.3-0.4,0.4c0.2,0.2,0.4,0.3,0.6,0.5C285.2,24,285.1,23.7,285,23.4z"/>
					<path class="st46" d="M326.6,0c0.1,0.1,0.1,0.3,0.2,0.4c0.4,0.7,1,1.3,1.3,2.1c0.5,1.2,0.4,2.6-0.1,3.7
						c-0.1,0.1-0.1,0.2-0.2,0.3c-0.2,0.1-0.5-0.1-0.6-0.4c-1.3-1.9-2.4-4-3.3-6.1h-8.7c6.9,9.8,12.7,20.8,16.6,32.5
						c2.5,7.4,4.1,15.2,4.8,23.1c0.2,2-0.2,4.7-1.9,5c-0.9,0.1-1.8-0.6-2.5-1.2c-4.3-3.9-8.5-7.7-12.8-11.6
						c-2.3-2.1-4.6-4.1-6.4-6.7c-2.1-2.8-3.6-6.2-5.6-9.2c-0.9-1.4-1.9-2.7-2.9-4.1c-1.4-1.9-2.8-3.7-3.9-5.8
						c-0.1-0.3-0.2-0.5-0.4-0.8c-0.4-0.8-0.8-1.7-1.1-2.5c-0.4-1.1-0.8-2.2-1.2-3.2c-1.7-5.1-3.2-10.3-4.6-15.5h-9.1
						c1.7,5.8,3.8,11.4,6.3,16.7c-0.3,0.7-1.2,0.2-1.7-0.3c-1.6-1.9-2.8-4.2-4.5-5.9c-2.1-2.1-4.7-3.2-6.9-5.1
						c-1.6-1.5-2.8-3.3-3.8-5.4h-17.1c8.3,9.2,18.8,16,28.2,23.8c0.1-0.1,0.3-0.3,0.4-0.4c0.1,0.3,0.1,0.6,0.2,0.9
						c0.8,0.7,1.6,1.3,2.4,2c3.1,2.7,6.1,5.6,8.9,8.7c-2.2,6.9-3.9,14.1-5,21.4c-0.3,2.1-0.8,4.6-2.4,5.6
						c-0.4-12.7-1.6-25.3-3.8-37.8c-0.2-0.2-0.4-0.3-0.6-0.5c-0.1,0.1-0.3,0.2-0.4,0.4c-5.6,4.6-12,6.5-18.8,7
						C266.6,38,267.6,45,268,52c0.3,5.5,0.2,11.1,0.5,16.6c0.7,11.2,3.1,22,5.2,33c1,5.3,1.9,10.8,0.9,16.1
						c-8.7-9.5-11.8-23.7-14.9-37c-3.2-13.5-6.7-26.9-10.6-40.1c-1.1-3.6-2.2-7.4-2.6-11.2c-1.1-0.2-2.1-0.4-3.2-0.7
						c0.2,2.2,0.5,4.4,0.9,6.6c1.9,12.1,4.4,24.2,7.4,36c1.5,6,3.2,12,5,17.9c1.5,4.8,4.5,10.7,4.3,15.9
						c-5.4-2.2-8.7-10.1-12.4-14.8c-4.3-5.4-8.6-10.8-12.4-16.7c-1.4-2.2-2.7-4.4-4.6-6.1c-0.7-0.6-1.4-1.2-1.9-2.1
						c-0.9-1.6-0.4-3.6-0.1-5.5c1.8-8.3,2.3-16.9,1.6-25.4c-1.3,0.9-2.6,1.7-4,2.5c0,6.4-0.3,12.8-0.8,19.1
						c-0.1,0.7-0.3,1.6-0.9,1.7c-0.6,0.1-1-0.6-1.3-1.2c-2.5-5.2-4.9-10.5-7-15.9c-1.3,0.3-2.7,0.5-4,0.7c0.8,1.5,1.5,3,1.6,4.8
						c0,0.2,0,0.5-0.1,0.7c-0.3,0.6-1.1,0.1-1.6-0.3c-2.1-2.1-4.9-3-7.4-4.2c-0.1,2.2-0.4,4.5-0.8,6.7c0.4,0.1,0.8,0.2,1.2,0.3
						c3.4,0.7,6.9,1.3,9.7,3.4c3.8,2.9,5.8,8,8.4,12.4c3.9,6.7,9.4,11.9,13.5,18.4c2.7,4.3,4.7,9,7.3,13.4
						c6.2,10.5,15.2,17.7,21.7,27.7c1.5,2.4,2.9,4.9,4.1,7.7c1.4,3.4,2.5,7,3.5,10.6c2.5,8.7,4.2,17.4,5.1,26.5
						c0,0.3,0.1,0.7-0.2,0.9c-0.2,0.2-0.5,0.2-0.7,0.1c-2.1-0.5-3.9-2-5.6-3.5c-11.6-10.1-25.9-15-38.8-22.2
						c-4.5-2.5-8.8-5.3-12.6-9c-4-3.8-6.4-9-9.7-13.4c-2.7-3.6-6.1-6.7-8.1-10.9c-0.5-1-0.9-2-1.2-3c-1.2-3.5-1.7-7.3-2.4-10.9
						c-1.8-8.9-5-17.5-9.5-25.1c-1.1,0.8-2.2,1.5-3.3,2.2c3.6,7.2,6.5,14.9,8.6,22.8c0.5,2,1,4.1,0.4,6.1
						c-7.9-7.6-13.3-18.9-22.2-24.3c-0.1,0.1-0.2,0.1-0.4,0.2c-1,0.5-1.8,1.2-2.7,1.9c3.9,3,7.4,7,10.8,10.9
						c4.2,4.8,8.4,9.6,12.6,14.5c1.1,1.2,2.1,2.4,3.1,3.6c1.7,1.9,3.3,3.9,4.8,5.9c1.5,2,9.4,12,7.3,13.5c-1.4,1-6.1-1.5-7.5-2.3
						c-3-1.7-5.8-3.9-8.8-5.7c-4.1-2.5-8.4-4.3-12.7-6.4c-1.9-1-3.8-2-5.6-3.2c-4.2-2.8-7.8-6.5-11.5-10.2c-2.9-3-5.8-5.9-8.8-8.9
						c-1.5,0.8-2.9,1.6-4.4,2.3c4.4,4.8,9.3,9,14.6,12.2c1.1,0.7,2.4,1.8,2.1,3.2c-0.1,0.5-0.4,0.9-0.8,1.3
						c-2.2,2.2-5.5,1.7-8.4,1.1c-9-2.2-17.6-6.1-25.6-11.4c-2.2,0.5-4.4,0.9-6.6,1.2c10.5,9.1,24,13.9,37.2,14.7
						c1.2,0.1,2.4,0.1,3.6,0.2c2.1,0.2,4.1,0.4,6,1.2c5.5,2.1,10.9,7,16.2,10c5.9,3.4,12,6.5,18.1,9.4c1.5,0.7,3,1.4,4.6,2
						c3.4,1.2,6.8,4.2,9.9,6.1c16.8,10.5,33.8,21.1,47.8,36c3.4,3.6,6.6,7.5,8.9,12.1c1.4,2.8,2.5,5.9,3.5,9
						c4.9,15.8,7.4,32.1,10.2,48.6c3,17.3,6,34.5,9,51.8c2.6,15,5.2,30.1,9.7,44.4c2.6,8.4,5.8,16.5,9.1,24.6
						c2.9,7.1,4.6,14.3,6.9,21.7c5.1,16.4,9.5,33.5,8.6,51.1c-0.6,11.6-3.5,22.9-7,33.8c-2.3,7.2-4.9,14.3-8.7,20.5
						c-4.2,6.8-9.8,12.2-15,18h65V0H326.6z M300.2,128c-0.3,1.3-0.7,2.8-1.7,3.2c-3.3-22.6-5-45.8-1.9-68.4c1-7.6,2.6-15,4.4-22.4
						c9.5,11.9,16.9,26,22.4,40.8c0.3,0.9,0.6,1.7,0.9,2.6c-2,2.7-3.9,5.6-5.8,8.4c-1.9,2.9-3.8,5.8-5.7,8.6
						c-1.7,2.7-3.5,5.3-5.1,8.1C304.3,114.8,301.6,121.2,300.2,128z M309,209.9c-1.5-5.7-3.4-11.3-4.6-17.1
						c-1.7-8.2-2.1-16.7-2.3-25.1c-0.2-9.9-0.1-20,1.4-29.7c1.3-8.8,3.7-17.1,7.9-24.6c1.7-3.1,3.7-5.9,5.7-8.7
						c3.1-4.3,6.2-8.5,9.8-12.2c5.7,19.9,7.3,40.1,8.5,61.3c0,0,0,0,0,0c0.1,1.1,0.1,2.2,0.2,3.3c0.1,0.9,0.1,1.9,0.2,2.8
						c0.7,11,1.4,22.1,2.1,33.1c0.2,2.5,0.3,5,0.5,7.5c-1.2,1.6-2.4,3.3-3.3,5.2c-0.2,0.4-0.6,0.8-0.8,0.5c0.7-2.3,0.2-5.3,0.2-7.7
						c0-2.5-0.1-5-0.1-7.6c-0.5-0.4-1-0.8-1.5-1.3c0,3.5-0.1,7-0.3,10.5c-1.6,21.7-10.2,42.5-10,64.3
						C314.6,247.8,313.8,228.1,309,209.9z M326.5,248.6c0.8-14.8,5.1-29.3,12.4-41.5c0.5,8.2,1,16.4,1.6,24.6
						c-5,7.4-9.2,15.4-12.6,23.9C326.4,253.8,326.3,251.1,326.5,248.6z M343.7,329.2c-6.9-14.1-12.1-29.4-15.1-45.2
						c-1.4-7.1-2.3-14.5-0.7-21.5c2-8.9,7.6-15.8,13.1-22.8c1,16.1,2,32.3,3.1,48.4C344.8,301.5,345.2,315.9,343.7,329.2z"/>
				</g>
			</g>
			<path class="st42" d="M312.7,100.9c1.9-2.9,3.8-5.8,5.7-8.6c1.9-2.8,3.8-5.7,5.8-8.4c-0.3-0.9-0.6-1.7-0.9-2.6
				c-5.5-14.8-12.9-28.9-22.4-40.8c-1.8,7.4-3.4,14.9-4.4,22.4c-3.1,22.6-1.4,45.8,1.9,68.4c1.1-0.4,1.5-1.9,1.7-3.2
				c1.5-6.8,4.1-13.2,7.5-19.1C309.3,106.2,311,103.5,312.7,100.9z"/>
			<path class="st42" d="M291.4,56.4c1.1-7.3,2.8-14.4,5-21.4c-2.8-3.1-5.7-6-8.9-8.7c-0.8-0.7-1.6-1.3-2.4-2
				c2.2,12.4,3.4,25.1,3.8,37.8C290.7,61,291.1,58.6,291.4,56.4z"/>
			<path class="st47" d="M282,135.6c0-6.9-0.1-13.9-1-20.8c-0.5-3.7-1.3-7.4-2-11.1c-3.7-17.9-7.4-35.7-11.1-53.6
				c0,0.6,0.1,1.3,0.1,1.9c0.3,5.5,0.2,11.1,0.5,16.6c0.7,11.2,3.1,22,5.2,33c1,5.1,1.9,10.4,1,15.5c0.5,1.3,1,2.5,1.5,3.8
				C277.9,125.9,279.3,131,282,135.6z"/>
			<path class="st47" d="M282.3,163c-3.1-7.4-4.5-15.4-6.4-23.3s-4.5-15.7-9.6-21.9c-4.7-5.8-11.3-9.8-16.6-15.1
				c-1.4-1.4-2.7-2.9-3.9-4.5c6.1,9.9,14.7,16.9,20.9,26.5c1.5,2.4,2.9,4.9,4.1,7.7c1.4,3.4,2.5,7,3.5,10.6
				c2.5,8.7,4.2,17.4,5.1,26.5c0,0.3,0.1,0.7-0.2,0.9c0,0-0.1,0.1-0.1,0.1c2.1,1.9,4.6,3.4,7.4,3.6
				C285.9,170.2,283.9,166.7,282.3,163z"/>
			<path class="st47" d="M338.2,410.6c-2.7-6.6-6.1-12.9-7.6-19.9c-1-4.7-1.1-9.6-1.6-14.5c-2.8-26.5-18.6-50.2-22.3-76.6
				c-0.7-5.2-1-10.4-1.6-15.6c-1.3-10.9-3-22.9-7.6-32.9c-0.8-1.8-1.7-3.5-2.2-5.4c-0.5-2.1-0.4-4.2-0.4-6.3
				c0.1-15.6-2.3-31-4.7-46.4c-0.1-0.5-0.4-1.3-0.9-1.1c0.5,8.2,1,16.4,1.4,24.6c0.1,1.3-0.1,3-1.3,3.4c-0.8-2.5-1.1-5.2-1.5-7.8
				c-2.2-13.7-9.2-25.4-18.2-35.7c-2.6-3-5.5-5.9-8.8-8.2c-2.6-1.8-5.5-3.1-8.3-4.6c-8.7-4.6-16.7-10.4-24.7-16.1
				c-6.5-4.6-14-11.3-21.6-13.7c-7.6-2.4-14.6-5.1-21.3-9.7c-5.2-3.6-11-7.6-17.6-7.7c-2.2,0-4.4,0.4-6.6,0.6c-1,0.1-2,0.2-3,0.2
				c1.8,0.3,3.6,0.5,5.4,0.6c1.2,0.1,2.4,0.1,3.6,0.2c2.1,0.2,4.1,0.4,6,1.2c5.5,2.1,10.9,7,16.2,10c5.9,3.4,12,6.5,18.1,9.4
				c1.5,0.7,3,1.4,4.6,2c3.4,1.2,6.8,4.2,9.9,6.1c16.8,10.5,33.8,21.1,47.8,36c3.4,3.6,6.6,7.5,8.9,12.1c1.4,2.8,2.5,5.9,3.5,9
				c4.9,15.8,7.4,32.1,10.2,48.6c3,17.3,6,34.5,9,51.8c2.6,15,5.2,30.1,9.7,44.4c2.6,8.4,5.8,16.5,9.1,24.6
				c2.9,7.1,4.6,14.3,6.9,21.7c5.1,16.4,9.5,33.5,8.6,51.1c-0.1,2.2-0.3,4.4-0.6,6.6c3.6-11,5.8-22.5,6.3-34.1
				C340.3,415.8,339.3,413.1,338.2,410.6z"/>
			<path class="st44" d="M340.2,391.8c-0.4-17.9,4-35.6,3.7-53.4c-0.1-3.3-0.3-6.7-0.6-10c-6.7-13.9-11.7-28.9-14.7-44.4
				c-1.4-7.1-2.3-14.5-0.7-21.5c2-8.9,7.6-15.8,13.1-22.8l-0.5-8c-5,7.4-9.2,15.4-12.6,23.9c-1.4-1.8-1.4-4.6-1.3-7
				c0.8-14.8,5.1-29.3,12.4-41.5l-0.4-6.5c-1.2,1.6-2.4,3.3-3.3,5.2c-0.2,0.4-0.6,0.8-0.8,0.5c0.7-2.3,0.2-5.3,0.2-7.7
				c0-2.5-0.1-5-0.1-7.6c-0.5-0.4-1-0.8-1.5-1.3c0,3.5-0.1,7-0.3,10.5c-1.6,21.7-10.2,42.5-10,64.3c-7.9-16.6-8.8-36.3-13.5-54.5
				c-1.5-5.7-3.4-11.3-4.6-17.1c-1.7-8.2-2.1-16.7-2.3-25.1c-0.2-9.9-0.1-20,1.4-29.7c1.3-8.8,3.7-17.1,7.9-24.6
				c1.7-3.1,3.7-5.9,5.7-8.7c3.1-4.3,6.2-8.5,9.8-12.2c0.1-3.5-2.7-8.7-2.7-8.7c-2,2.7-3.9,5.6-5.8,8.4c-1.9,2.9-3.8,5.8-5.7,8.6
				c-1.7,2.7-3.5,5.3-5.1,8.1c-3.4,5.9-6,12.3-7.5,19.1c-0.3,1.3-0.7,2.8-1.7,3.2c-3.3-22.6-5-45.8-1.9-68.4c1-7.6,2.6-15,4.4-22.4
				c-2-4.1-4.5-5.3-4.5-5.3c-2.2,6.9-3.9,14.1-5,21.4c-0.3,2.1-0.8,4.6-2.4,5.6c-0.4-12.7-1.6-25.3-3.8-37.8
				c-0.1-0.3-0.1-0.6-0.2-0.9c-0.1,0.1-0.3,0.3-0.4,0.4c-0.1,0.1-0.3,0.2-0.4,0.4c-5.6,4.6-12,6.5-18.8,7c1.2,6.3,2.1,12.6,2.6,19
				c3.7,17.9,7.4,35.7,11.1,53.6c0.8,3.7,1.5,7.4,2,11.1c0.9,6.9,1,13.9,1,20.8c-2.7-4.5-4.1-9.7-5.8-14.7c-0.5-1.3-0.9-2.6-1.5-3.8
				c0,0.2-0.1,0.4-0.1,0.6c-8.7-9.5-11.8-23.7-14.9-37c-3.2-13.5-6.7-26.9-10.6-40.1c-1.1-3.6-2.2-7.4-2.6-11.2
				c-1.1-0.2-2.1-0.4-3.2-0.7c0.2,2.2,0.5,4.4,0.9,6.6c1.9,12.1,4.4,24.2,7.4,36c1.5,6,3.2,12,5,17.9c1.5,4.8,4.5,10.7,4.3,15.9
				c-5.4-2.2-8.7-10.1-12.4-14.8c-4.3-5.4-8.6-10.8-12.4-16.7c-1.4-2.2-2.7-4.4-4.6-6.1c-0.7-0.6-1.4-1.2-1.9-2.1
				c-0.9-1.6-0.4-3.6-0.1-5.5c1.8-8.3,2.3-16.9,1.6-25.4c-1.3,0.9-2.6,1.7-4,2.5c0,6.4-0.3,12.8-0.8,19.1c-0.1,0.7-0.3,1.6-0.9,1.7
				c-0.6,0.1-1-0.6-1.3-1.2c-2.5-5.2-4.9-10.5-7-15.9c-1.3,0.3-2.7,0.5-4,0.7c0.8,1.5,1.5,3,1.6,4.8c0,0.2,0,0.5-0.1,0.7
				c-0.3,0.6-1.1,0.1-1.6-0.3c-2.1-2.1-4.9-3-7.4-4.2c-0.1,2.2-0.4,4.5-0.8,6.7c0.4,0.1,0.8,0.2,1.2,0.3c3.4,0.7,6.9,1.3,9.7,3.4
				c3.8,2.9,5.8,8,8.4,12.4c3.9,6.7,9.4,11.9,13.5,18.4c2.7,4.3,4.7,9,7.3,13.4c0.2,0.4,0.5,0.8,0.7,1.2c1.2,1.6,2.5,3.1,3.9,4.5
				c5.3,5.3,11.8,9.3,16.6,15.1c5.1,6.2,7.7,14.1,9.6,21.9s3.3,15.8,6.4,23.3c1.5,3.7,3.5,7.3,4.2,11.2c-2.8-0.2-5.2-1.7-7.4-3.6
				c-0.2,0.1-0.4,0.1-0.6,0c-2.1-0.5-3.9-2-5.6-3.5c-11.6-10.1-25.9-15-38.8-22.2c-4.5-2.5-8.8-5.3-12.6-9c-4-3.8-6.4-9-9.7-13.4
				c-2.7-3.6-6.1-6.7-8.1-10.9c-0.5-1-0.9-2-1.2-3c-1.2-3.5-1.7-7.3-2.4-10.9c-1.8-8.9-5-17.5-9.5-25.1c-1.1,0.8-2.2,1.5-3.3,2.2
				c3.6,7.2,6.5,14.9,8.6,22.8c0.5,2,1,4.1,0.4,6.1c-7.9-7.6-13.3-18.9-22.2-24.3c-0.1,0.1-0.2,0.1-0.4,0.2c-1,0.5-1.8,1.2-2.7,1.9
				c3.9,3,7.4,7,10.8,10.9c4.2,4.8,8.4,9.6,12.6,14.5c1.1,1.2,2.1,2.4,3.1,3.6c1.7,1.9,3.3,3.9,4.8,5.9c1.5,2,9.4,12,7.3,13.5
				c-1.4,1-6.1-1.5-7.5-2.3c-3-1.7-5.8-3.9-8.8-5.7c-4.1-2.5-8.4-4.3-12.7-6.4c-1.9-1-3.8-2-5.6-3.2c-4.2-2.8-7.8-6.5-11.5-10.2
				c-2.9-3-5.8-5.9-8.8-8.9c-1.5,0.8-2.9,1.6-4.4,2.3c4.4,4.8,9.3,9,14.6,12.2c1.1,0.7,2.4,1.8,2.1,3.2c-0.1,0.5-0.4,0.9-0.8,1.3
				c-2.2,2.2-5.5,1.7-8.4,1.1c-9-2.2-17.6-6.1-25.6-11.4c-2.2,0.5-4.4,0.9-6.6,1.2c9.1,7.9,20.3,12.5,31.8,14.2c1-0.1,2-0.1,3-0.2
				c2.2-0.3,4.4-0.7,6.6-0.6c6.6,0.1,12.4,4.1,17.6,7.7c6.7,4.6,13.7,7.3,21.3,9.7c7.7,2.5,15.2,9.1,21.6,13.7
				c8,5.7,16,11.5,24.7,16.1c2.8,1.5,5.7,2.8,8.3,4.6c3.3,2.3,6.1,5.2,8.8,8.2c9,10.3,16,22,18.2,35.7c0.4,2.6,0.7,5.3,1.5,7.8
				c1.2-0.4,1.4-2.1,1.3-3.4c-0.5-8.2-1-16.4-1.5-24.6c0.5-0.2,0.9,0.5,0.9,1.1c2.4,15.4,4.7,30.8,4.7,46.4c0,2.1-0.1,4.3,0.4,6.3
				c0.5,1.9,1.4,3.6,2.2,5.4c4.6,10,6.3,22,7.6,32.9c0.6,5.2,0.9,10.4,1.6,15.6c3.7,26.4,19.5,50.1,22.3,76.6
				c0.5,4.8,0.6,9.7,1.6,14.5c1.5,6.9,4.9,13.3,7.6,19.9c1.1,2.6,2,5.3,2.8,8c0.2-3.7,0.2-7.3,0.1-11
				C340.8,402.3,340.3,397.1,340.2,391.8z"/>
			<path class="st48" d="M355.6,442.3c-0.5-4.1-1.1-8.1-2.5-12c-1.1-3-2.7-5.8-3.9-8.9c-1.8-4.7-2.4-9.6-2.6-14.6
				c-2.2-57.2,16.6-114.5,5.8-171.5c-0.3,5.8-0.9,11.5-2,17.2c-1.7-0.7-2.2-2.9-2.3-4.7c-1.8-21-5.5-42.4-5-63.4
				c0.4-20.7,3.7-41.4,0.7-62c-3.2-21.6-13.4-41.5-23.4-61c-3.9-7.6-7.8-15.2-13.2-21.8c-5.3-6.6-12-12-18.5-17.4
				c-9.1-7.4-18.2-14.8-27.2-22.3h-5.1c8.3,9.2,18.8,16,28.2,23.8c0.2,0.2,0.4,0.3,0.6,0.5c0.8,0.7,1.6,1.3,2.4,2
				c3.1,2.7,6.1,5.6,8.9,8.7c0,0,2.5,1.2,4.5,5.3c9.5,11.9,16.9,26,22.4,40.8c0.3,0.9,0.6,1.7,0.9,2.6c0,0,2.9,5.2,2.7,8.7
				c5.7,19.9,7.3,40.1,8.5,61.3c0,0,0,0,0,0c0.1,1.1,0.1,2.2,0.2,3.3c0.1,0.9,0.1,1.9,0.2,2.8c0.7,11,1.4,22.1,2.1,33.1
				c0.2,2.5,0.3,5,0.5,7.5l0.4,6.5c0.5,8.2,1,16.4,1.6,24.6l0.5,8c1,16.1,2,32.3,3.1,48.4c0.8,13.4,1.3,27.8-0.3,41.1
				c-0.1-0.3-0.3-0.5-0.4-0.8c0.3,3.3,0.5,6.7,0.6,10c0.3,17.9-4,35.6-3.7,53.4c0.1,5.3,0.6,10.5,0.9,15.7c0.1,3.7,0.1,7.3-0.1,11
				c-0.6,11.6-2.7,23.1-6.3,34.1c-1.1,9.3-3.6,18.4-6.4,27.3c-2.3,7.2-4.9,14.3-8.7,20.5c-4.2,6.8-9.8,12.2-15,18h41.2
				c1.8-6,3.3-12.2,4.4-18.5c0.4-2.6,0-6.4-2.7-6.5c-2.4,8.2-7.3,15.7-13.9,21.1c1-4.5,3.3-8.5,5.2-12.6c5.8-12.3,9.1-25.9,9.5-39.6
				c0.2-5.8-0.1-11.7,1.9-17.1c5,9.8,3.5,21.6,1.9,32.5C357.1,467,357,454.3,355.6,442.3z"/>
			<path class="st49" d="M14.4,79.1c1.4,0.6,2.8,1.2,3.9,2.3c1.5,1.5,2,3.7,2.6,5.6c4.7,14.8,20.4,23,35.2,27.6
				c10,3.1,20.5,5.1,30.9,4.3c9.1-0.8,18.3-4,25.2-10c-4.6-1-9-3.3-12.7-6.6c-1.7-0.4-3.4-0.8-5.1-1.3c-6-1.7-12.5-4.9-14.6-11.6
				c-10.6,2.3-21-5.5-28-14.9C36.9,54.5,32.4,25,39.7,0H0v67.1C3.8,72.2,8.6,76.4,14.4,79.1z"/>
		</g>
		<g>
			<path class="st50" d="M246.1,128c0.2-0.7,0.4-1.5,0.8-2.2c0.6-1.1,1.5-2,2.5-2.9c0.5-0.4,0.9-0.9,1.4-1.3
				c-7.9-2.1-15.6-5.2-22.9-9.1c-4.4-2.4-8.9-5.2-11.9-9.6c-4.5,2-9,3.9-13.6,5.6c0.3,1,0.7,2.1,1.2,3c0.8,1.6,1.7,3,2.8,4.3
				c0.7,0.9,1.4,1.8,2.1,2.6c1.1,1.3,2.2,2.6,3.2,3.9c0.4,0.6,0.8,1.1,1.2,1.7c1.2,1.7,2.3,3.5,3.4,5.3c1.5,2.3,3.1,4.6,5.1,6.5
				c1,0.9,1.9,1.8,3,2.6c2.7,2.2,5.5,4,8.4,5.7C238.9,139.9,244.1,134.6,246.1,128z"/>
			<path class="st51" d="M327.8,398.6c-17.8,5.4-34,16.3-45.4,31c-1.6,2.1-3.1,4.2-4.5,6.4c-0.8,1.3-1.6,2.6-2.9,3.4
				c-1.6,1.1-3.6,1.2-5.5,1.3c-9.7,0.8-19.5,3.3-27.8,8.5c-8.3,5.2-15,13.2-17.6,22.6c-0.5,1.7-0.8,3.5-1.9,4.8
				c-0.9,1.1-2.1,1.7-3.4,2.3c-6.1,3.1-12.5,5.8-18,9.9c-4,3-7.5,6.8-9.5,11.3c1.6-0.3,3.2-0.5,4.8-0.7c4.8-0.7,9.9-1.2,14.2,1.1
				c1.9,1,3.5,2.6,5.6,3.4c3.3,1.3,7,0.3,10.3-0.7c8.1-2.4,16.2-4.7,24.3-7.1c4.9-1.4,10.8-2.7,14.7,0.5c1.2,1,2.1,2.3,3.3,3.2
				c3.9,2.9,9.4,1.1,14-0.6c13.7-5.1,28.1-8.5,42.6-10.1c1.2-3,2.2-6.1,3.2-9.3c0,0,0-0.1,0-0.1c0.4-1.2,0.7-2.4,1.1-3.6
				c0.2-0.6,0.3-1.1,0.5-1.7c0.2-0.6,0.4-1.2,0.5-1.9c0.2-0.8,0.4-1.5,0.6-2.3c0.1-0.4,0.2-0.7,0.3-1.1c1.4-5.5,2.6-11,3.3-16.6v0
				c0,0,0,0,0,0c0.1-1,0.2-2,0.3-3.1c0.1-1.2,0.2-2.3,0.3-3.5C336.1,429.8,332.4,413.9,327.8,398.6z"/>
			<path class="st50" d="M221.6,146.7c-3.1-1.9-6.5-4.9-9.9-6.1c-1.6-0.6-3-1.2-4.6-2c-6.1-2.9-12.2-6-18.1-9.4
				c-5.3-3-10.7-7.9-16.2-10c-1.9-0.7-4-1-6-1.2c-13.1,1.8-26.2,1.3-38.9-2.6c-3.2-1-6.8-2.6-8.1-6.2c-2.5,0.3-5,0.1-7.5-0.4
				c-6.9,6-16,9.2-25.2,10c-1,0.1-2.1,0.1-3.1,0.2c-2.8,4.3-5.5,8.7-8,13.3c0.1,0,0.2,0,0.3,0c10.5,0.8,20.6,6.2,31,5.9
				c1.2,0,2.3-0.1,3.5-0.3c1.4-0.2,2.8-0.5,4.1-0.8c1.6-0.3,3.2-0.4,4.8-0.1c6.7,1.2,11,6.8,15.9,11c0.2,0.2,0.4,0.4,0.6,0.5
				c1.5,1.2,2.9,2.4,4.4,3.5c4.1,2.9,8.4,5.2,13.4,6.7c6.5,1.9,13.2,2.5,19.9,2.9c7.4,0.4,14.9,0.5,22.2-0.9
				c7.1-1.3,13.8-4.1,20.3-7.2c2.7-1.3,5.7-2.8,8.8-4.4C224,148.2,222.8,147.5,221.6,146.7z"/>
			<path class="st50" d="M42.1,113.4c0,1,0.4,2.3,1.4,2.2c0.7-0.1,1-0.8,1.3-1.4c0.5-1.1,0.9-2.2,1.4-3.3c-1.4-0.6-2.8-1.3-4.1-1.9
				C42.1,110.5,42.1,111.9,42.1,113.4z"/>
			<path class="st50" d="M64.1,116.7c-2.7-0.6-5.3-1.4-7.9-2.1c-1.7-0.5-3.4-1.1-5.2-1.7c-3.2,8.1-4.5,16.9-3.9,25.6
				c2.8-1.1,5.6-2.1,8.4-3c1.4-3.6,2.8-7.2,4.5-10.7C61.3,122,62.6,119.4,64.1,116.7z"/>
			<path class="st50" d="M13.8,125.3c0.5,0.7,1.3,1.4,2,0.9c-1-5.9-1.8-11.9-2.2-18c-3.2,0.7-6.5,1.1-9.8,1.2
				C6.6,115,10.2,120.2,13.8,125.3z"/>
			<path class="st50" d="M31.1,101.8c-3.3,1.8-6.8,3.4-10.5,4.6c0,0.9,0,1.8,0,2.7c0.2,8.2,0.7,16.4,1.8,24.5
				c0.5,4,1.2,8.1,2.1,12.1c4.3-0.9,8.5-2.1,12.6-3.5c1-0.3,2-0.7,3-1.1c-1.8-11.6-3-23.3-3.5-35.1
				C34.7,104.7,32.8,103.3,31.1,101.8z"/>
			<path class="st52" d="M260.2,423.3c-6.3-0.1-13.1,1.4-17.2,6.2c-6.1-6.1-15.6-8.5-23.9-6c-8.3,2.5-14.9,9.7-16.7,18.1
				c-5.7-5.1-14.5-6.6-21.6-3.6c-5.9-10-18.4-15.6-29.8-13.5c-15.7,2.9-22,16.3-23.8,30.5c-10.1,1.1-19.8,4.9-28.2,10.7
				c-2.7,1.9-5.2,3.9-7.5,6.2c7-0.4,14.6,0.7,18.8,6.1c6.5-4.6,15-4.9,22.9-4.9c5.5,0,12.1,0.7,14.3,5.7c0.3,0.8,0.5,1.6,1.1,2.2
				c0.7,0.8,1.9,1,2.9,1.1c7.6,1.2,15.2,3.5,21.6,7.9c4.4,3,8.1,7,10.5,11.7c2.5-0.5,5-1,7.6-1.4c2-4.5,5.6-8.3,9.5-11.3
				c5.5-4.1,11.9-6.8,18-9.9c1.2-0.6,2.5-1.3,3.4-2.3c1.1-1.3,1.5-3.1,1.9-4.8c2.6-9.4,9.3-17.4,17.6-22.6c8.3-5.2,18-7.7,27.8-8.5
				c1.9-0.1,3.9-0.3,5.5-1.3c1.2-0.8,2.1-2.2,2.9-3.4c1.4-2.2,2.9-4.3,4.5-6.4C275.6,425.7,268,423.4,260.2,423.3z"/>
			<path class="st50" d="M11.9,147.1c2.3,0,4.7-0.2,7-0.5c-0.3-1-0.7-1.9-1-2.8c-0.8-1.9-2.2-3.5-3.5-5.1C8.6,131.7,3.7,124,0,115.8
				V146C3.9,146.8,7.9,147.2,11.9,147.1z"/>
			<path class="st53" d="M173.2,489.9c-6.4-4.4-14-6.7-21.6-7.9c-1.1-0.2-2.2-0.4-2.9-1.1c-0.6-0.6-0.8-1.5-1.1-2.2
				c-2.2-5-8.8-5.7-14.3-5.7c-8,0.1-16.5,0.3-22.9,4.9c-4.2-5.5-11.8-6.6-18.8-6.1c-0.5,0-1.1,0.1-1.6,0.1c-5.9,0.6-11.9,1.9-17,5
				c-5.1,3.1-9.2,8.2-9.9,14.2c-15.5-1.8-31.7,3.3-43.4,13.7c-4.2,3.8-7.9,8.4-9.4,13.7h118.5c17.7-7.5,36.2-13.1,55-16.8
				C181.3,496.9,177.5,492.9,173.2,489.9z"/>
			<path class="st54" d="M136.2,148.5c-0.2-0.2-0.4-0.3-0.6-0.5c-9.4,5-20.2,7.9-30.6,9.6c-3.8,0.6-7.7,1.2-11.3,2.6
				c-2.3,0.9-4.4,2.2-6.8,3.1c0.4-2.2,2.6-3.7,4.5-4.9c9-5.7,17-13,23.6-21.3c-1.4,0.2-2.8,0.6-4.1,0.8c-1.2,0.2-2.3,0.3-3.5,0.3
				c-5.4,4.9-11.5,8.9-17.3,13.3c-9.8,7.5-18.6,16.2-26.8,25.5c-1.9,2.1-4.3,4.9-7,5.9c-1-2.8,1.3-6.3,2.2-8.9
				c1.2-3.4,2.4-6.9,3.6-10.3c2.5-6.8,5.2-13.6,8.2-20.2c1.8-3.8,3.7-7.6,5.7-11.2c2.5-4.5,5.2-9,8-13.3c-6.7,0.2-13.4-0.7-20-2.3
				c-1.4,2.6-2.8,5.3-4,8c-1.6,3.5-3.1,7.1-4.5,10.7c-0.2,0.5-0.4,1-0.5,1.4c-1.1,3.1-3.1,6.8-3.6,10c-0.1,0.7-0.1,1.3-0.4,1.9
				s-0.8,1.2-1.5,1.1c-1-0.1-1.3-3.2-1.4-4c-0.5-2.5-0.9-5-1-7.5c-0.6-8.7,0.7-17.5,3.9-25.6c-1.6-0.6-3.2-1.2-4.8-1.9
				c-0.5,1.1-0.9,2.2-1.4,3.3c-0.3,0.6-0.6,1.3-1.3,1.4c-1,0.1-1.3-1.2-1.4-2.2c-0.1-1.5-0.1-2.9-0.1-4.4c-1.9-0.9-3.7-2-5.4-3.1
				c0.5,11.8,1.7,23.5,3.5,35.1c0.3,1.7,0.5,3.4,0.8,5.1c1.9,10.9,4.4,22.1,1.3,32.7c-0.2,0.6-0.4,1.2-0.9,1.5
				c-0.9,0.5-2-0.4-2.6-1.3c-7.3-9.9-11.6-21.5-14.3-33.4c-0.9-4-1.6-8-2.1-12.1c-1.1-8.1-1.6-16.3-1.8-24.5c0-0.9,0-1.8,0-2.7
				c-2.3,0.8-4.7,1.4-7,1.9c0.4,6,1.2,12,2.2,18c-0.7,0.5-1.5-0.3-2-0.9c-3.6-5.1-7.2-10.3-10-15.8c-1.3,0.1-2.6,0.1-3.8,0v6.3
				c3.7,8.2,8.6,15.9,14.3,22.9c1.3,1.6,2.7,3.2,3.5,5.1c0.4,0.9,0.7,1.8,1,2.8c2.1,6.3,3.3,13.3,4.9,19.6
				c3.4,13.1,7.7,27.6,6.4,41.3c-0.8,7.9-4.4,16.4-6.6,24c-3.9,12.9-6.5,26.2-9.8,39.3C10.2,284.1,5.5,297,0.9,310
				c-0.3,0.8-0.6,1.6-0.9,2.4v150.1c7.3-1.6,14.9-1.7,22.3-0.4c4,0.7,7.9,1.9,11.8,2.9c-1.7-6.6-4.4-13.2-5.6-19.8
				c-1.5-7.9-1-16-1.2-24c-0.5-21.1-5.9-41.7-6.4-62.7c-0.5-18.9,3.8-38.4,6.4-57.1c6-43.2,12.9-105.3,56.3-128.7
				c11.2-6,24-8.1,36.2-11.6c7.3-2.1,14.6-4.9,20.9-9.1C139.1,150.9,137.6,149.7,136.2,148.5z"/>
			<path class="st55" d="M2.4,362.1c1.1-36.5,10.7-74.3,20.3-109.6c3.5-12.7,5.5-27,9.9-39.3c5.3-14.5,13.7-24.6,14.3-41
				c0.1-3.4,0-6.9-1-10.1c-0.7-2.6-1.9-5-3.1-7.4c-0.2-0.4-0.4-0.7-0.5-1.1c1.4,8.5,2.4,17.2,0.1,25.4c-0.2,0.6-0.4,1.2-0.9,1.5
				c-0.9,0.5-2-0.4-2.6-1.3c-7.3-9.9-11.6-21.5-14.3-33.4c-0.9-4-1.6-8-2.1-12.1c-1.1-8.1-1.6-16.3-1.8-24.5c0-0.9,0-1.8,0-2.7
				c-2.3,0.8-4.7,1.4-7,1.9c0.4,6,1.2,12,2.2,18c-0.7,0.5-1.5-0.3-2-0.9c-3.6-5.1-7.2-10.3-10-15.8c-1.3,0.1-2.6,0.1-3.8,0v6.3
				c3.7,8.2,8.6,15.9,14.3,22.9c1.3,1.6,2.7,3.2,3.5,5.1c0.4,0.9,0.7,1.8,1,2.8c2.1,6.3,3.3,13.3,4.9,19.6
				c3.4,13.1,7.7,27.6,6.4,41.3c-0.8,7.9-4.4,16.4-6.6,24c-3.9,12.9-6.5,26.2-9.8,39.3C10.2,284.1,5.5,297,0.9,310
				c-0.3,0.8-0.6,1.6-0.9,2.4v150.1c3.5-0.7,7.1-1.2,10.6-1.3C5.6,428.4,1.4,395.3,2.4,362.1z"/>
			<path class="st56" d="M65.3,465.6c-7.1,0.8-14.2,2-21.3,1.3c-3.3-0.3-6.6-1.1-9.9-1.9c-3.9-1-7.8-2.1-11.8-2.9
				c-7.3-1.3-15-1.2-22.3,0.4v55.9h10.2c1.5-5.3,5.2-10,9.4-13.7c11.6-10.5,27.8-15.6,43.4-13.7c0.7-5.9,4.8-11.1,9.9-14.2
				c5.1-3.1,11.1-4.4,17-5c0.5-0.1,1.1-0.1,1.6-0.1c2.3-2.2,4.8-4.3,7.5-6.2C87.8,464.4,76.5,464.4,65.3,465.6z"/>
			<path class="st50" d="M185.5,117.7c2.7,1.2,5.3,2.5,7.9,4.1c2.2,1.4,4.4,3,6.6,4.4c0.7,0.5,1.5,0.9,2.2,1.3
				c0.3,0.2,0.9,0.5,1.5,0.8c1.2,0.6,2.6,1.2,3.9,1.5c0.4,0.1,0.7,0.1,1,0.2c0.5,0,0.8,0,1.1-0.2c1.4-1-1.6-5.7-4.1-9.3
				c-0.1-0.2-0.2-0.3-0.4-0.5c-1.2-1.7-2.3-3.1-2.8-3.7c-0.8-1-1.6-2-2.4-3c-0.8-1-1.6-2-2.5-2.9c-5.6,2-11.2,3.7-16.8,5.1
				c0.5,0.3,1.1,0.5,1.6,0.8C183.4,116.7,184.5,117.2,185.5,117.7z"/>
			<path class="st57" d="M20.9,87c-0.6-2-1.1-4.2-2.6-5.6c-1.1-1.1-2.5-1.6-3.9-2.3C8.6,76.4,3.8,72.2,0,67.1h0v32.2v10.2
				c1.3,0,2.6,0,3.8,0c3.3-0.1,6.6-0.6,9.8-1.2c2.4-0.5,4.7-1.1,7-1.9c3.6-1.2,7.1-2.7,10.5-4.6C26.5,97.8,22.8,92.9,20.9,87z"/>
			<g>
				<g>
					<path class="st58" d="M43.9,140.6c0.3,4,0.9,8.7,4.8,10.9c0.2,0.1,0.4,0.2,0.6,0c0.1-0.1,0.1-0.2,0.1-0.3c0-0.4,0-0.8,0.1-1.2
						c-0.9-0.4-1.1-3.2-1.3-4c-0.5-2.5-0.9-5-1-7.5c-0.6-8.7,0.7-17.5,3.9-25.6c-0.8-0.3-1.5-0.6-2.3-0.9c-2.4,5.7-3.7,12-4.4,18.2
						C43.9,133.6,43.7,137.1,43.9,140.6z"/>
					<path class="st58" d="M94.7,153.7c-1.7,1.1-3.5,2.1-5.1,3.3c-3.2,2.4-5.6,5.8-6.9,9.6c1.6-0.9,2.9-2.1,4.1-3.4
						c0.4-2.2,2.6-3.6,4.5-4.8c9-5.7,17-13,23.6-21.3c-1.4,0.2-2.8,0.6-4.1,0.8c-0.2,0-0.3,0-0.5,0.1
						C106.1,144.2,101,149.7,94.7,153.7z"/>
					<path class="st58" d="M54.9,184.8c0.5-0.6,0.9-1.2,1.4-1.8c0,0,0,0,0,0c-1-2.8,1.3-6.3,2.2-8.9c1.2-3.4,2.4-6.9,3.6-10.3
						c2.5-6.8,5.2-13.6,8.2-20.2c1.8-3.8,3.7-7.6,5.7-11.2c2.5-4.5,5.2-9,8-13.3c-1.5,0-2.9,0-4.4,0c-14.5,20.2-24.3,43.8-28.5,68.3
						C52.7,187.4,53.9,186,54.9,184.8z"/>
					<path class="st58" d="M92.6,166.4c-22.7,7.8-40,27.2-50.6,48.8c-10.6,21.6-15.3,45.5-19.9,69.1c-3.3,16.8-6.6,33.6-9.9,50.5
						c-2.5,12.6-7,25.9-1.8,38.4c0.2-5.8,0.3-11.5,0.5-17.3c0-1.5,1.4-3.6,2.4-2.6c0.2,0.2,0.3,0.5,0.4,0.8
						c6.4,19.4-5.6,39.7,2.4,59.1c1-2.6,1.3-5.4,0.8-8.1c-0.6-3.4-2-7.4,0.4-9.8c5.7,11.5,6,26.1,6.4,38.6
						c0.3,10.1,2.2,20.2,5.4,29.8c1.6,0.4,3.3,0.9,4.9,1.3c-1.7-6.6-4.4-13.2-5.6-19.8c-1.5-7.9-1-16-1.2-24
						c-0.5-21.1-5.9-41.7-6.4-62.7c-0.5-18.9,3.8-38.4,6.4-57.1c6-43.2,12.9-105.3,56.3-128.7c11.2-6,24-8.1,36.2-11.6
						c7.3-2.1,14.6-4.9,20.9-9.1c-0.9-0.6-1.8-1.3-2.7-2C126.4,160.5,108,161.2,92.6,166.4z"/>
					<path class="st58" d="M33.9,174.9c0.7,1,1.5,2.1,2.5,2.8c0.6,0.4,1.3,0.7,2,0.7c-7-9.8-11.2-21.1-13.8-32.8
						c-0.9-4-1.6-8-2.1-12.1c-1.1-8.1-1.6-16.3-1.8-24.5c0-0.9,0-1.8,0-2.7c-0.9,0.3-1.8,0.6-2.8,0.8
						C16.4,130.4,20.5,155.9,33.9,174.9z"/>
				</g>
			</g>
			<path class="st59" d="M319.5,500.4c2.2-3.5,4-7.3,5.5-11.2c-14.5,1.6-28.9,5-42.6,10.1c-4.6,1.7-10.1,3.5-14,0.6
				c-1.2-0.9-2.1-2.2-3.3-3.2c-4-3.2-9.8-2-14.7-0.5c-8.1,2.4-16.2,4.7-24.3,7.1c-3.4,1-7.1,2-10.3,0.7c-2-0.8-3.7-2.4-5.6-3.4
				c-4.2-2.3-9.4-1.8-14.2-1.1c-1.6,0.2-3.2,0.5-4.8,0.7c-2.5,0.4-5.1,0.9-7.6,1.4c-18.9,3.7-37.3,9.3-55,16.8h175.8v0
				C309.7,512.6,315.3,507.2,319.5,500.4z"/>
		</g>
		<g>
			<path class="st60" d="M41.7,466.6c3.7-33,19.8-64.1,40.7-90.2c-17.7,10.2-30.5,27.6-38.3,46.5c-5.5,13.4-8.8,27.5-10.9,41.9
				c0.3,0.1,0.6,0.2,0.9,0.2C36.6,465.6,39.1,466.2,41.7,466.6z"/>
			<path class="st60" d="M51.8,467c0.5-6.9,2.9-13.6,7-19.2c-6.7,4.7-11.9,11.5-14.9,19.1c0,0,0,0,0,0
				C46.6,467.1,49.2,467.1,51.8,467z"/>
			<path class="st60" d="M22.7,462.2c2.4-18.5,10.8-36.5,19-53.6c-14,14.3-23.2,33-26.2,52.7c2.3,0.1,4.6,0.4,6.8,0.8
				C22.4,462.1,22.5,462.2,22.7,462.2z"/>
			<path class="st60" d="M65.5,454.8c-3.7,3.1-6.6,7.2-8.4,11.7c2.4-0.3,4.8-0.6,7.2-0.8C64.3,462,64.7,458.4,65.5,454.8z"/>
			<path class="st60" d="M36.7,439.2c-4.9,7.2-8.7,15.3-11,23.7c2.1,0.5,4.1,1,6.1,1.6C32.7,455.9,34.3,447.4,36.7,439.2z"/>
			<path class="st60" d="M57.7,457.7c-2.6,2.5-4.5,5.8-5.4,9.3c1.6-0.1,3.1-0.2,4.7-0.4C57.5,463.6,57.7,460.7,57.7,457.7z"/>
			<path class="st60" d="M0,452.9v9.6c1.3-0.3,2.7-0.5,4-0.7C2.8,458.8,1.5,455.8,0,452.9z"/>
			<path class="st60" d="M12.3,461.2c-1.3-20.9,0.6-42,5.7-62.3c-7.9,11.5-11.4,25.6-12.1,39.6c-0.4,7.7,0.1,15.3,0.9,23
				C8.7,461.3,10.5,461.2,12.3,461.2z"/>
			<path class="st60" d="M65.3,465.6c-0.3,0-0.6,0.1-0.9,0.1c-2.4,0.3-4.8,0.6-7.2,0.8c-0.2,0.4-0.3,0.8-0.4,1.2
				c0.1-0.4,0.1-0.8,0.2-1.1c-1.6,0.2-3.1,0.3-4.7,0.4c-0.3,1.1-0.5,2.3-0.5,3.5c0-1.2,0-2.3,0.1-3.5c-2.6,0.1-5.3,0.2-7.9-0.1
				c0,0,0,0,0,0c-1.6,4-2.7,8.3-3,12.6c0-4.3,0.3-8.6,0.8-12.9c-2.6-0.4-5.1-1-7.6-1.6c-0.3-0.1-0.6-0.2-0.9-0.2
				c-0.9,5.9-1.6,11.9-2.2,17.8c-0.2-6.1,0.1-12.2,0.7-18.2c-2-0.5-4.1-1.1-6.1-1.6c-1.8,6.2-2.8,12.7-3,19.1
				c-0.9-6.6-0.8-13.2,0.1-19.8c-0.1,0-0.3-0.1-0.4-0.1c-2.2-0.4-4.5-0.7-6.8-0.8c-1,6.2-1.3,12.5-1,18.8c-1-6.3-1.7-12.6-2.1-18.9
				c-1.8,0-3.7,0.1-5.5,0.2c0.7,6.3,1.6,12.5,2.6,18.7c-1.3-6.3-3.1-12.4-5.5-18.4c-1.3,0.2-2.7,0.4-4,0.7v4v51.9h10.2
				c1.5-5.3,5.2-10,9.4-13.7c11.6-10.5,27.8-15.6,43.4-13.7c0.7-5.9,4.8-11.1,9.9-14.2c5.1-3.1,11.1-4.4,17-5
				c0.5-0.1,1.1-0.1,1.6-0.1c2.3-2.2,4.8-4.3,7.5-6.2C87.8,464.4,76.5,464.4,65.3,465.6z"/>
		</g>
		<path class="st56" d="M91.2,465c0.7-3.6,0.5-7.4-0.8-10.8c-0.5,3.8-2,7.5-4.2,10.6c-0.9,1.2-1.8,2.3-2.9,3.3
			c-0.4-1.1-0.9-2.3-1.3-3.4c-0.2-0.5-0.4-0.9-0.5-1.4c-0.4,0.5-0.7,0.9-1.1,1.4c-2,2.8-3.5,6.1-4.4,9.5c0.3-3.1,0.4-6.2,0.4-9.4
			c-0.1-16.6-4.3-33.1-12.3-47.6c1.9,16.1,8.8,32.1,6.3,47.9c-0.1,0.9-0.3,1.8-0.5,2.7c-0.4,1.9-1,3.8-2.4,5.1c-0.3-2.5-0.6-5-1-7.5
			c-0.2-1.4-0.4-2.8-0.5-4.1c-0.9,1.4-1.6,2.9-2.2,4.4c-0.5,1.4-1,2.8-1.3,4.2c0-1.4,0-2.7-0.1-4.1c-0.2-4.2-0.7-8.4-1.6-12.5
			c-0.6,4.3-1.2,8.6-1.8,12.9c-0.6,4.1-1.1,8.1-1.7,12.2c0.2-4,0.2-8,0.2-12c-0.3-10.6-1.6-21.2-3.8-31.6c0.9,10.7,0.6,21.4-0.9,32
			c-0.5,4-1.2,8.1-2.1,12c-0.4-2.7-0.8-5.3-1.2-8c-1.5,3.8-2.2,7.9-2.1,11.9c-1.1-3.6-2.7-10.8-1.7-15.9c0.3-1.5,0.9-2.8,1.7-3.8
			c-1,1.1-1.9,2.4-2.7,3.7c-3,5.2-4,11.6-2.6,17.5c-1.9-6.3-1.2-11.9-1.5-18c0-0.6-0.1-1.2-0.1-1.8c-0.4,0.5-0.7,1.1-1.1,1.6
			c-3.1,4.9-4.9,10.7-4.9,16.5c-0.1-5.8,0.3-11.6,1.2-17.3c1.6-9.8,4.5-19.4,8.1-28.7c5.8-14.6,13.5-28.4,21.2-42.1
			c-6,2.8-9.7,8.8-12.9,14.6c-9.3,17.4-16.4,35.9-21,55.1c-1.4,5.8-2.5,11.6-3.4,17.4c-0.5-2.6-1.1-5.2-1.6-7.8
			c-0.6,2.4-1.3,4.8-1.9,7.2c0.9-4.1,1.4-8.2,1.5-12.4c-2.7,5.7-4.4,11.9-5,18.2c-0.4-8.2,0-16.5,1.2-24.7c0.5-3.2,1-6.4,1.8-9.6
			c-2.1,2.9-3.9,5.9-5.5,9c-4.8,9.8-7.2,20.8-6.6,31.7c-1.4-10.6-1.4-21.4,0.1-32c1.1-7.9,3-15.6,5.6-23.1
			c-2.7,7.7-5.4,15.3-7.1,23.2c-0.5,2.1-0.9,4.1-1.2,6.3c-1.4,9.5-0.3,19.6-2.5,28.9c0-11.2-1.8-22.3-5.2-32.9
			c1.1,9.6,2.2,19.3,0.9,28.9c0.3-4.9-0.7-9.7-2.2-14.4v40.4h10.2c1.5-5.3,5.2-10,9.4-13.7c11.6-10.5,27.8-15.6,43.4-13.7
			c0.7-5.9,4.8-11.1,9.9-14.2c5.1-3.1,11.1-4.4,17-5c0.5-0.1,1.1-0.1,1.6-0.1c2.3-2.2,4.8-4.3,7.5-6.2
			C96.4,465.3,93.8,465.1,91.2,465z"/>
	</g>
	<rect x="0" y="0" class="st61" width="369.5" height="518.4"/>
</g>
</svg>
