<?xml version="1.0" encoding="utf-8"?>
<!-- Generator: Adobe Illustrator 24.1.2, SVG Export Plug-In . SVG Version: 6.00 Build 0)  -->
<svg version="1.1" id="Layer_1" xmlns="http://www.w3.org/2000/svg" xmlns:xlink="http://www.w3.org/1999/xlink" x="0px" y="0px"
	 viewBox="0 0 121.7 122.9" style="enable-background:new 0 0 121.7 122.9;" xml:space="preserve">
<style type="text/css">
	.st0{fill-rule:evenodd;clip-rule:evenodd;}
</style>
<g>
	<path class="st0" d="M53.6,0c14.8,0,28.2,6,37.9,15.7c9.7,9.7,15.7,23.1,15.7,37.9c0,10.8-3.2,20.9-8.7,29.3l23.2,25.3l-16,14.6
		L83.3,98.3c-8.5,5.7-18.7,9-29.7,9c-14.8,0-28.2-6-37.9-15.7C6,81.8,0,68.4,0,53.6c0-14.8,6-28.2,15.7-37.9C25.4,6,38.8,0,53.6,0
		L53.6,0L53.6,0z M53.3,9c24.3,0,44.1,19.7,44.1,44.1S77.6,97.1,53.3,97.1S9.3,77.4,9.3,53.1S29,9,53.3,9L53.3,9z"/>
</g>
</svg>
